REM DIRINDEX 1\4,1\2\5,1\2\6,1\2\7,1\3\8,1\3\9,1\3\10,1\3\11
REM DIRNAME folder01,folder02,folder03,folder04,folder05,folder06,folder07,folder08,folder09,folder10,folder11
TITLE ""
FILE "t_k_291-301.mp3" MP3
  TRACK 01 AUDIO
    TITLE "5:cjc108_0874"
    INDEX 01 00:00:00
  TRACK 02 AUDIO
    TITLE "0:"
    INDEX 01 00:00:60
  TRACK 03 AUDIO
    TITLE "6:cjc108_0875"
    INDEX 01 00:01:11
  TRACK 04 AUDIO
    TITLE "0:"
    INDEX 01 00:03:00
  TRACK 05 AUDIO
    TITLE "7:cjc108_0876"
    INDEX 01 00:03:25
  TRACK 06 AUDIO
    TITLE "0:"
    INDEX 01 00:07:54
  TRACK 07 AUDIO
    TITLE "5:cjc108_0877"
    INDEX 01 00:08:48
  TRACK 08 AUDIO
    TITLE "0:"
    INDEX 01 00:09:51
  TRACK 09 AUDIO
    TITLE "6:cjc108_0878"
    INDEX 01 00:09:73
  TRACK 10 AUDIO
    TITLE "0:"
    INDEX 01 00:11:07
  TRACK 11 AUDIO
    TITLE "7:cjc108_0879"
    INDEX 01 00:11:23
  TRACK 12 AUDIO
    TITLE "0:"
    INDEX 01 00:17:08
  TRACK 13 AUDIO
    TITLE "5:cjc108_0880"
    INDEX 01 00:17:69
  TRACK 14 AUDIO
    TITLE "0:"
    INDEX 01 00:18:72
  TRACK 15 AUDIO
    TITLE "6:cjc108_0881"
    INDEX 01 00:19:13
  TRACK 16 AUDIO
    TITLE "0:"
    INDEX 01 00:20:24
  TRACK 17 AUDIO
    TITLE "7:cjc108_0882"
    INDEX 01 00:20:41
  TRACK 18 AUDIO
    TITLE "0:"
    INDEX 01 00:25:15
  TRACK 19 AUDIO
    TITLE "5:cjc108_0883"
    INDEX 01 00:25:74
  TRACK 20 AUDIO
    TITLE "0:"
    INDEX 01 00:27:08
  TRACK 21 AUDIO
    TITLE "6:cjc108_0884"
    INDEX 01 00:27:18
  TRACK 22 AUDIO
    TITLE "0:"
    INDEX 01 00:29:03
  TRACK 23 AUDIO
    TITLE "7:cjc108_0885"
    INDEX 01 00:29:34
  TRACK 24 AUDIO
    TITLE "0:"
    INDEX 01 00:35:59
  TRACK 25 AUDIO
    TITLE "5:cjc108_0886"
    INDEX 01 00:36:52
  TRACK 26 AUDIO
    TITLE "0:"
    INDEX 01 00:37:52
  TRACK 27 AUDIO
    TITLE "6:cjc108_0887"
    INDEX 01 00:38:00
  TRACK 28 AUDIO
    TITLE "0:"
    INDEX 01 00:39:74
  TRACK 29 AUDIO
    TITLE "7:cjc108_0888"
    INDEX 01 00:40:21
  TRACK 30 AUDIO
    TITLE "0:"
    INDEX 01 00:46:41
  TRACK 31 AUDIO
    TITLE "5:cjc108_0889"
    INDEX 01 00:47:42
  TRACK 32 AUDIO
    TITLE "0:"
    INDEX 01 00:48:53
  TRACK 33 AUDIO
    TITLE "6:cjc108_0890"
    INDEX 01 00:48:73
  TRACK 34 AUDIO
    TITLE "0:"
    INDEX 01 00:51:15
  TRACK 35 AUDIO
    TITLE "7:cjc108_0891"
    INDEX 01 00:51:34
  TRACK 36 AUDIO
    TITLE "0:"
    INDEX 01 00:56:25
  TRACK 37 AUDIO
    TITLE "5:cjc108_0892"
    INDEX 01 00:57:07
  TRACK 38 AUDIO
    TITLE "0:"
    INDEX 01 00:58:11
  TRACK 39 AUDIO
    TITLE "6:cjc108_0893"
    INDEX 01 00:58:20
  TRACK 40 AUDIO
    TITLE "0:"
    INDEX 01 01:00:21
  TRACK 41 AUDIO
    TITLE "7:cjc108_0894"
    INDEX 01 01:00:37
  TRACK 42 AUDIO
    TITLE "0:"
    INDEX 01 01:04:52
  TRACK 43 AUDIO
    TITLE "5:cjc108_0895"
    INDEX 01 01:05:38
  TRACK 44 AUDIO
    TITLE "0:"
    INDEX 01 01:06:55
  TRACK 45 AUDIO
    TITLE "6:cjc108_0896"
    INDEX 01 01:06:73
  TRACK 46 AUDIO
    TITLE "0:"
    INDEX 01 01:08:66
  TRACK 47 AUDIO
    TITLE "7:cjc108_0897"
    INDEX 01 01:09:07
  TRACK 48 AUDIO
    TITLE "0:"
    INDEX 01 01:15:07
  TRACK 49 AUDIO
    TITLE "5:cjc108_0898"
    INDEX 01 01:15:68
  TRACK 50 AUDIO
    TITLE "0:"
    INDEX 01 01:16:71
  TRACK 51 AUDIO
    TITLE "6:cjc108_0899"
    INDEX 01 01:17:14
  TRACK 52 AUDIO
    TITLE "0:"
    INDEX 01 01:19:11
  TRACK 53 AUDIO
    TITLE "7:cjc108_0900"
    INDEX 01 01:19:21
  TRACK 54 AUDIO
    TITLE "0:"
    INDEX 01 01:24:00
  TRACK 55 AUDIO
    TITLE "5:cjc108_0901"
    INDEX 01 01:24:67
  TRACK 56 AUDIO
    TITLE "0:"
    INDEX 01 01:25:72
  TRACK 57 AUDIO
    TITLE "6:cjc108_0902"
    INDEX 01 01:26:09
  TRACK 58 AUDIO
    TITLE "0:"
    INDEX 01 01:27:40
  TRACK 59 AUDIO
    TITLE "7:cjc108_0903"
    INDEX 01 01:27:59
  TRACK 60 AUDIO
    TITLE "0:"
    INDEX 01 01:32:49
  TRACK 61 AUDIO
    TITLE "5:cjc108_0904"
    INDEX 01 01:33:44
  TRACK 62 AUDIO
    TITLE "0:"
    INDEX 01 01:34:50
  TRACK 63 AUDIO
    TITLE "6:cjc108_0905"
    INDEX 01 01:34:73
  TRACK 64 AUDIO
    TITLE "0:"
    INDEX 01 01:37:13
  TRACK 65 AUDIO
    TITLE "7:cjc108_0906"
    INDEX 01 01:37:32
  TRACK 66 AUDIO
    TITLE "0:"
    INDEX 01 01:42:51
